<svg width="16" height="18" viewBox="0 0 16 18" fill="none" xmlns="http://www.w3.org/2000/svg">
<path d="M7.89494 0C4.73827 0 2.10547 2.54281 2.10547 5.78947C2.10547 7.02463 2.47663 8.12603 3.18894 9.1581L7.45189 15.81C7.65869 16.1334 8.13161 16.1328 8.33799 15.81L12.6194 9.13547C13.3164 8.15017 13.6844 6.99322 13.6844 5.78947C13.6844 2.59716 11.0873 0 7.89494 0ZM7.89494 8.42105C6.44396 8.42105 5.26336 7.24045 5.26336 5.78947C5.26336 4.33849 6.44396 3.15789 7.89494 3.15789C9.34592 3.15789 10.5265 4.33849 10.5265 5.78947C10.5265 7.24045 9.34592 8.42105 7.89494 8.42105Z" fill="white" fill-opacity="0.35"/>
<path d="M12.0093 12.0942L9.35905 16.2376C8.67305 17.3072 7.11259 17.3037 6.42989 16.2387L3.77537 12.0953C1.43979 12.6353 0 13.6246 0 14.8067C0 16.858 4.06765 17.9646 7.89473 17.9646C11.7218 17.9646 15.7895 16.858 15.7895 14.8067C15.7895 13.6237 14.3477 12.634 12.0093 12.0942Z" fill="white" fill-opacity="0.35"/>
</svg>
