<svg width="80" height="80" viewBox="0 0 80 80" fill="none" xmlns="http://www.w3.org/2000/svg">
<circle cx="40" cy="40" r="40" fill="url(#paint0_linear_129_11858)" fill-opacity="0.35"/>
<path d="M50.7669 40.533H45.9877C45.8506 40.533 45.7192 40.5874 45.6223 40.6843C45.5254 40.7812 45.471 40.9126 45.471 41.0496V53.9664H42.7585V48.6059C42.7585 48.4689 42.704 48.3375 42.6072 48.2406C42.5103 48.1437 42.3788 48.0893 42.2418 48.0893H37.5918C37.4547 48.0893 37.3233 48.1437 37.2264 48.2406C37.1295 48.3375 37.0751 48.4689 37.0751 48.6059V53.9664H34.3626V35.2371C34.3626 34.6673 34.8262 34.2037 35.3959 34.2037H44.4377C45.0074 34.2037 45.471 34.6673 45.471 35.2371V38.1111C45.471 38.2481 45.5254 38.3795 45.6223 38.4764C45.7192 38.5733 45.8506 38.6277 45.9877 38.6277C46.1247 38.6277 46.2561 38.5733 46.353 38.4764C46.4499 38.3795 46.5043 38.2481 46.5043 38.1111V35.2371C46.5043 34.0975 45.5772 33.1704 44.4377 33.1704H35.3959C34.2563 33.1704 33.3292 34.0975 33.3292 35.2371V53.9664H29.0667C28.4969 53.9664 28.0333 53.5028 28.0333 52.9331V42.5996C28.0333 42.0299 28.4969 41.5663 29.0667 41.5663H30.875C31.0121 41.5663 31.1435 41.5119 31.2404 41.415C31.3373 41.3181 31.3917 41.1867 31.3917 41.0496C31.3917 40.9126 31.3373 40.7812 31.2404 40.6843C31.1435 40.5874 31.0121 40.533 30.875 40.533H29.0667C27.9271 40.533 27 41.4601 27 42.5996V52.9331C27 54.0727 27.9271 54.9998 29.0667 54.9998H45.9877C46.1247 54.9998 46.2561 54.9453 46.353 54.8484C46.4499 54.7515 46.5043 54.6201 46.5043 54.4831V41.5663H50.7669C51.3366 41.5663 51.8002 42.0299 51.8002 42.5996V52.9331C51.8002 53.5028 51.3366 53.9664 50.7669 53.9664H48.571C48.434 53.9664 48.3026 54.0208 48.2057 54.1177C48.1088 54.2146 48.0544 54.3461 48.0544 54.4831C48.0544 54.6201 48.1088 54.7515 48.2057 54.8484C48.3026 54.9453 48.434 54.9998 48.571 54.9998H50.7669C51.9065 54.9998 52.8336 54.0727 52.8336 52.9331V42.5996C52.8336 41.4601 51.9065 40.533 50.7669 40.533ZM38.1084 49.1226H41.7251V53.9664H38.1084V49.1226ZM37.7751 28.5623L37.4461 30.4871C37.3741 30.9086 37.818 31.2307 38.1965 31.0311L39.9168 30.1234L41.6371 31.0311C42.0152 31.2307 42.4595 30.9088 42.3875 30.4871L42.0585 28.5623L43.4517 27.1994C43.7568 26.901 43.5877 26.3804 43.165 26.3188L41.2411 26.0383L40.3804 24.2882C40.1915 23.9039 39.6421 23.9039 39.4532 24.2882L38.5925 26.0383L36.6687 26.3188C36.2464 26.3803 36.0766 26.9007 36.3819 27.1994L37.7751 28.5623ZM39.0107 27.0215C39.0936 27.0094 39.1724 26.9773 39.2402 26.928C39.308 26.8786 39.3627 26.8135 39.3997 26.7383L39.9168 25.6869L40.4338 26.7383C40.4708 26.8135 40.5256 26.8786 40.5934 26.928C40.6612 26.9773 40.7399 27.0094 40.8229 27.0215L41.9828 27.1908L41.1423 28.013C41.0825 28.0714 41.0379 28.1434 41.0121 28.2229C40.9863 28.3024 40.9802 28.387 40.9942 28.4693L41.1923 29.6281C40.0584 29.0298 40.0852 29.0226 39.9167 29.0226C39.7462 29.0226 39.7615 29.037 38.6412 29.6281L38.8392 28.4693C38.8533 28.387 38.8472 28.3024 38.8214 28.2229C38.7956 28.1434 38.7509 28.0714 38.6912 28.013L37.8506 27.1908L39.0107 27.0215ZM32.0591 28.7062C32.1763 28.3453 32.5057 28.3503 32.8334 28.3026C32.9811 28.0033 33.0768 27.6909 33.4565 27.6909C33.8359 27.6909 33.933 28.0056 34.0796 28.3026L34.4368 28.3546C34.8597 28.416 35.0294 28.9374 34.7232 29.2359L34.4647 29.4879C34.5211 29.8169 34.6274 30.1259 34.3201 30.349C34.0132 30.5721 33.7497 30.3745 33.4565 30.2203C33.161 30.3756 32.9 30.5722 32.5928 30.349C32.2857 30.126 32.3922 29.8143 32.4482 29.4879C32.2095 29.255 31.9417 29.0673 32.0591 28.7062ZM27.5382 31.2896C27.6555 30.9287 27.9848 30.9337 28.3125 30.886L28.4723 30.5622C28.6615 30.1791 29.2097 30.1787 29.399 30.5622L29.5588 30.886C29.889 30.934 30.2158 30.9284 30.3331 31.2896C30.4504 31.6505 30.181 31.84 29.9439 32.0712L30.0049 32.4271C30.0592 32.7437 29.8146 33.0311 29.4956 33.0311C29.3363 33.0311 29.2734 32.9813 28.9357 32.8037L28.6162 32.9717C28.2379 33.1705 27.7943 32.8486 27.8665 32.4271L27.9276 32.0712C27.6886 31.8383 27.4208 31.6507 27.5382 31.2896ZM44.9797 28.7062C45.0969 28.3453 45.4262 28.3503 45.754 28.3026L45.9138 27.9789C46.103 27.5956 46.6511 27.5954 46.8404 27.9789L47.0002 28.3026C47.3304 28.3506 47.6573 28.3451 47.7746 28.7062C47.8919 29.0671 47.6225 29.2567 47.3853 29.4879L47.4464 29.8437C47.5007 30.1603 47.256 30.4477 46.9371 30.4477C46.7778 30.4477 46.7148 30.3979 46.3772 30.2203L46.0577 30.3884C45.6794 30.5872 45.2357 30.2653 45.308 29.8437L45.369 29.4879C45.13 29.255 44.8623 29.0673 44.9797 28.7062ZM49.5005 31.2896C49.6178 30.9287 49.9471 30.9337 50.2749 30.886L50.4347 30.5622C50.6238 30.179 51.172 30.1788 51.3613 30.5622L51.5211 30.886C51.8513 30.934 52.1782 30.9284 52.2955 31.2896C52.4127 31.6505 52.1434 31.84 51.9062 32.0712L51.9672 32.4271C52.0216 32.7437 51.7769 33.0311 51.4579 33.0311C51.2987 33.0311 51.2357 32.9813 50.8981 32.8037L50.5786 32.9717C50.2003 33.1705 49.7566 32.8486 49.8289 32.4271L49.8899 32.0712C49.6509 31.8383 49.3832 31.6507 49.5005 31.2896ZM30.6813 45.183C30.8183 45.183 30.9497 45.2374 31.0466 45.3343C31.1435 45.4312 31.198 45.5626 31.198 45.6997V47.8955C31.198 48.0326 31.1435 48.164 31.0466 48.2609C30.9497 48.3578 30.8183 48.4122 30.6813 48.4122C30.5443 48.4122 30.4128 48.3578 30.3159 48.2609C30.219 48.164 30.1646 48.0326 30.1646 47.8955V45.6997C30.1646 45.5626 30.219 45.4312 30.3159 45.3343C30.4128 45.2374 30.5443 45.183 30.6813 45.183ZM49.1523 48.4122C49.0153 48.4122 48.8838 48.3578 48.7869 48.2609C48.6901 48.164 48.6356 48.0326 48.6356 47.8955V45.6997C48.6356 45.5626 48.6901 45.4312 48.7869 45.3343C48.8838 45.2374 49.0153 45.183 49.1523 45.183C49.2893 45.183 49.4207 45.2374 49.5176 45.3343C49.6145 45.4312 49.669 45.5626 49.669 45.6997V47.8955C49.669 48.0326 49.6145 48.164 49.5176 48.2609C49.4207 48.3578 49.2893 48.4122 49.1523 48.4122ZM42.8876 39.435H36.9459C36.8089 39.435 36.6775 39.3806 36.5806 39.2837C36.4837 39.1868 36.4293 39.0554 36.4293 38.9184C36.4293 38.7813 36.4837 38.6499 36.5806 38.553C36.6775 38.4561 36.8089 38.4017 36.9459 38.4017H42.8876C43.0247 38.4017 43.1561 38.4561 43.253 38.553C43.3499 38.6499 43.4043 38.7813 43.4043 38.9184C43.4043 39.0554 43.3499 39.1868 43.253 39.2837C43.1561 39.3806 43.0247 39.435 42.8876 39.435ZM41.9835 43.3746C42.1205 43.3746 42.2519 43.4291 42.3488 43.526C42.4457 43.6229 42.5001 43.7543 42.5001 43.8913C42.5001 44.0283 42.4457 44.1598 42.3488 44.2567C42.2519 44.3536 42.1205 44.408 41.9835 44.408H37.8501C37.7131 44.408 37.5817 44.3536 37.4848 44.2567C37.3879 44.1598 37.3334 44.0283 37.3334 43.8913C37.3334 43.7543 37.3879 43.6229 37.4848 43.526C37.5817 43.4291 37.7131 43.3746 37.8501 43.3746H41.9835Z" fill="#AB2B2C"/>
<defs>
<linearGradient id="paint0_linear_129_11858" x1="40" y1="0" x2="40" y2="80" gradientUnits="userSpaceOnUse">
<stop stop-color="#AB2B2C"/>
<stop offset="1" stop-color="#AB2B2C" stop-opacity="0.35"/>
</linearGradient>
</defs>
</svg>
